<?xml version="1.0" encoding="UTF-8"?>
<svg xmlns="http://www.w3.org/2000/svg" xmlns:xlink="http://www.w3.org/1999/xlink" width="24px" height="24px" viewBox="0 0 24 24" version="1.1">
<g id="surface1">
<path style="fill:none;stroke-width:2;stroke-linecap:round;stroke-linejoin:round;stroke:rgb(3.921569%,46.27451%,84.705883%);stroke-opacity:1;stroke-miterlimit:4;" d="M 5 19 L 5 6.199219 C 5 5.078125 5 4.519531 5.21875 4.09375 C 5.410156 3.714844 5.714844 3.410156 6.09375 3.21875 C 6.519531 3 7.078125 3 8.199219 3 L 15.800781 3 C 16.921875 3 17.480469 3 17.90625 3.21875 C 18.285156 3.410156 18.589844 3.714844 18.78125 4.09375 C 19 4.519531 19 5.078125 19 6.199219 L 19 17 L 7 17 C 5.894531 17 5 17.894531 5 19 Z M 5 19 C 5 20.105469 5.894531 21 7 21 L 19 21 M 18 17 L 18 21 M 15 13.5 C 14.714844 12.359375 13.480469 11.5 12 11.5 C 10.519531 11.5 9.285156 12.359375 9 13.5 M 12 7.5 L 12.011719 7.5 M 13 7.5 C 13 8.050781 12.550781 8.5 12 8.5 C 11.449219 8.5 11 8.050781 11 7.5 C 11 6.949219 11.449219 6.5 12 6.5 C 12.550781 6.5 13 6.949219 13 7.5 Z M 13 7.5 "/>
</g>
</svg>
