<?xml version="1.0" encoding="utf-8"?>
<svg xmlns="http://www.w3.org/2000/svg" viewBox="167.4139 124.6787 23.8054 20.6195" width="23.8054px" height="20.6195px"><g id="surface1" transform="matrix(1, 0, 0, 1, 167.23500061035156, 122.98400115966798)"><path style="stroke: none; fill-rule: nonzero; fill-opacity: 1; fill: rgb(26, 77, 255);" d="M 9.144531 1.742188 C 7.816406 1.957031 6.601562 2.738281 5.875 3.828125 C 5.3125 4.683594 5.058594 5.5 5.058594 6.511719 C 5.054688 7.105469 5.117188 7.515625 5.289062 8.046875 C 6.089844 10.507812 8.75 11.914062 11.242188 11.191406 C 13.015625 10.679688 14.359375 9.175781 14.671875 7.355469 C 14.878906 6.136719 14.617188 4.882812 13.929688 3.847656 C 13.261719 2.835938 12.152344 2.066406 10.96875 1.800781 C 10.464844 1.6875 9.628906 1.660156 9.144531 1.742188 Z M 10.5 4.191406 C 11.539062 4.460938 12.304688 5.441406 12.308594 6.511719 C 12.3125 7.199219 12.097656 7.714844 11.605469 8.214844 C 11.101562 8.726562 10.589844 8.941406 9.886719 8.941406 C 9.207031 8.941406 8.671875 8.714844 8.1875 8.230469 C 7.433594 7.484375 7.269531 6.398438 7.75 5.417969 C 8.011719 4.875 8.648438 4.363281 9.265625 4.191406 C 9.554688 4.113281 10.199219 4.113281 10.5 4.191406 Z M 10.5 4.191406 "/><path style="stroke: none; fill-rule: nonzero; fill-opacity: 1; fill: rgb(26, 77, 255);" d="M 17.515625 9.632812 C 14.953125 9.976562 12.949219 11.933594 12.375 14.65625 C 12.292969 15.03125 12.273438 15.25 12.273438 15.925781 C 12.269531 16.769531 12.3125 17.113281 12.511719 17.820312 C 12.554688 17.988281 12.585938 18.15625 12.570312 18.1875 C 12.53125 18.289062 13.699219 20.339844 13.773438 20.3125 C 13.800781 20.304688 14.003906 20.476562 14.230469 20.695312 C 14.925781 21.359375 15.816406 21.875 16.675781 22.113281 C 16.898438 22.171875 17.113281 22.242188 17.152344 22.257812 C 17.226562 22.300781 17.839844 22.320312 18.917969 22.3125 C 19.539062 22.304688 19.59375 22.296875 19.621094 22.226562 C 19.636719 22.171875 19.746094 22.113281 19.933594 22.046875 C 20.769531 21.773438 21.582031 21.265625 22.230469 20.621094 L 22.660156 20.195312 L 22.847656 20.261719 L 23.039062 20.324219 L 23.214844 20.015625 C 23.3125 19.84375 23.527344 19.476562 23.6875 19.199219 L 23.984375 18.691406 L 23.984375 18.335938 C 23.984375 18.082031 23.964844 17.960938 23.921875 17.925781 C 23.871094 17.882812 23.871094 17.84375 23.921875 17.652344 C 23.96875 17.480469 23.984375 17.023438 23.984375 15.609375 L 23.984375 13.792969 L 23.546875 13.03125 C 23.308594 12.613281 23.070312 12.230469 23.019531 12.183594 C 22.96875 12.136719 22.8125 11.957031 22.675781 11.785156 C 21.8125 10.710938 20.554688 9.945312 19.234375 9.691406 C 18.804688 9.605469 17.910156 9.574219 17.515625 9.632812 Z M 17.515625 9.632812 "/><path style="stroke: none; fill-rule: nonzero; fill-opacity: 1; fill: rgb(26, 77, 255);" d="M 9.046875 12.625 C 7.320312 12.730469 5.710938 13.078125 4.148438 13.699219 C 3.433594 13.976562 2.257812 14.566406 1.78125 14.875 C 0.871094 15.46875 0.3125 16.433594 0.210938 17.589844 C 0.1875 17.855469 0.175781 18.746094 0.179688 19.578125 L 0.195312 21.082031 L 5.792969 21.09375 C 8.871094 21.097656 11.390625 21.09375 11.390625 21.082031 C 11.390625 21.070312 11.269531 20.859375 11.125 20.617188 C 10.816406 20.113281 10.628906 19.714844 10.402344 19.105469 L 10.238281 18.675781 L 6.429688 18.660156 L 2.621094 18.652344 L 2.621094 18.167969 C 2.621094 17.609375 2.660156 17.445312 2.847656 17.167969 C 2.960938 17 3.074219 16.917969 3.472656 16.695312 C 4.984375 15.859375 6.59375 15.34375 8.425781 15.101562 C 8.554688 15.085938 8.960938 15.058594 9.324219 15.046875 L 9.988281 15.023438 L 10.0625 14.640625 C 10.167969 14.109375 10.332031 13.550781 10.527344 13.066406 L 10.6875 12.65625 L 10.511719 12.628906 C 10.339844 12.601562 9.46875 12.597656 9.046875 12.625 Z M 9.046875 12.625 "/></g></svg>