<?xml version="1.0" standalone="no"?>
<!DOCTYPE svg PUBLIC "-//W3C//DTD SVG 20010904//EN"
 "http://www.w3.org/TR/2001/REC-SVG-20010904/DTD/svg10.dtd">
<svg version="1.0" xmlns="http://www.w3.org/2000/svg"
 width="558.000000pt" height="558.000000pt" viewBox="0 0 558.000000 558.000000"
 preserveAspectRatio="xMidYMid meet">
<metadata>
Created by potrace 1.16, written by Peter Selinger 2001-2019
</metadata>
<g transform="translate(0.000000,558.000000) scale(0.100000,-0.100000)"
fill="#000000" stroke="none">
<path d="M2128 5175 c-309 -50 -592 -232 -761 -486 -131 -199 -190 -389 -190
-624 -1 -138 14 -234 54 -357 186 -573 805 -900 1385 -732 412 119 725 469
798 893 48 283 -13 575 -173 816 -155 235 -414 414 -689 476 -117 26 -312 33
-424 14z m315 -570 c242 -63 420 -291 421 -540 1 -160 -49 -280 -164 -396
-117 -119 -236 -169 -400 -169 -158 0 -282 52 -395 165 -175 174 -214 426
-102 654 61 127 209 246 353 286 67 18 217 18 287 0z"/>
<path d="M4075 3339 c-596 -80 -1062 -536 -1196 -1169 -19 -87 -23 -138 -23
-295 -1 -197 9 -277 55 -441 10 -39 17 -78 14 -86 -9 -23 262 -500 280 -494 6
2 53 -38 106 -89 162 -155 369 -275 569 -330 52 -14 102 -30 111 -34 17 -10
160 -14 411 -12 144 1 157 3 163 20 4 12 29 26 73 41 194 64 383 182 534 332
l100 99 44 -15 44 -15 41 72 c23 40 73 125 110 190 l69 118 0 83 c0 59 -4 87
-14 95 -12 10 -12 19 0 64 11 40 14 146 14 475 l0 423 -101 177 c-56 97 -111
186 -123 197 -12 11 -48 53 -80 93 -201 250 -494 428 -801 487 -100 20 -308
27 -400 14z"/>
<path d="M2105 2643 c-402 -25 -776 -106 -1140 -250 -166 -65 -440 -202 -551
-274 -211 -138 -341 -363 -365 -632 -5 -61 -8 -269 -7 -462 l3 -350 1303 -3
c716 -1 1302 0 1302 3 0 3 -28 52 -62 108 -71 117 -115 210 -168 352 l-38 100
-886 3 -886 2 0 113 c0 130 9 168 53 233 26 39 52 58 145 110 352 194 726 314
1152 370 30 4 125 10 209 13 l155 6 17 89 c25 123 63 253 108 366 l38 95 -41
7 c-40 6 -243 7 -341 1z"/>
</g>
</svg>
