<?xml version="1.0" encoding="UTF-8"?>
<svg xmlns="http://www.w3.org/2000/svg" xmlns:xlink="http://www.w3.org/1999/xlink" width="24px" height="21px" viewBox="0 0 24 21" version="1.1">
<g id="surface1">
<path style=" stroke:none;fill-rule:nonzero;fill:rgb(97.254902%,97.254902%,97.254902%);fill-opacity:1;" d="M 0 0 C 7.921875 0 15.839844 0 24 0 C 24 6.929688 24 13.859375 24 21 C 16.078125 21 8.160156 21 0 21 C 0 14.070312 0 7.140625 0 0 Z M 0 0 "/>
<path style=" stroke:none;fill-rule:nonzero;fill:rgb(1.960784%,1.960784%,95.294118%);fill-opacity:1;" d="M 16.5 8.976562 C 19.035156 9.238281 19.035156 9.238281 20.585938 10.183594 C 21.953125 12.5 21.84375 14.15625 21.515625 16.800781 C 20.636719 18.425781 20.636719 18.425781 19.035156 19.320312 C 16.085938 19.214844 16.085938 19.214844 13.242188 18.480469 C 11.585938 15.960938 11.585938 15.960938 11.792969 13.386719 C 12.617188 10.113281 13.148438 9.339844 16.5 8.976562 Z M 16.5 8.976562 "/>
<path style=" stroke:none;fill-rule:nonzero;fill:rgb(29.411766%,29.411766%,84.313726%);fill-opacity:1;" d="M 10.398438 2.730469 C 12.414062 3.359375 12.414062 3.359375 14.070312 5.039062 C 13.609375 8.867188 13.609375 8.867188 12.414062 10.078125 C 9.984375 10.238281 9.984375 10.238281 7.449219 10.078125 C 5.792969 8.398438 5.792969 8.398438 5.535156 6.300781 C 5.621094 5.605469 5.707031 4.914062 5.792969 4.199219 C 8.277344 2.519531 8.277344 2.519531 10.398438 2.730469 Z M 10.398438 2.730469 "/>
<path style=" stroke:none;fill-rule:nonzero;fill:rgb(0%,0%,100%);fill-opacity:1;" d="M 9.929688 11.761719 C 9.929688 12.3125 9.929688 12.867188 9.929688 13.441406 C 7.0625 14.6875 7.0625 14.6875 4.136719 15.960938 C 5.078125 16.0625 6.015625 16.167969 6.984375 16.273438 C 7.957031 16.449219 8.929688 16.621094 9.929688 16.800781 C 10.203125 17.355469 10.476562 17.910156 10.757812 18.480469 C 7.753906 18.480469 4.75 18.480469 1.65625 18.480469 C 1.65625 14.28125 1.65625 14.28125 3 12.757812 C 5.4375 11.519531 7.238281 11.574219 9.929688 11.761719 Z M 9.929688 11.761719 "/>
<path style=" stroke:none;fill-rule:nonzero;fill:rgb(85.882354%,85.882354%,85.882354%);fill-opacity:1;" d="M 12.414062 9.238281 C 12.960938 9.515625 13.507812 9.792969 14.070312 10.078125 C 13.25 11.328125 13.25 11.328125 12.414062 12.601562 C 12.09375 13.992188 11.8125 15.390625 11.585938 16.800781 C 8.855469 16.800781 6.125 16.800781 3.308594 16.800781 C 4.964844 14.28125 4.964844 14.28125 7.550781 13.703125 C 8.335938 13.617188 9.121094 13.527344 9.929688 13.441406 C 9.929688 12.886719 9.929688 12.332031 9.929688 11.761719 C 9.386719 11.484375 8.839844 11.207031 8.277344 10.921875 C 10.242188 10.027344 10.242188 10.027344 12.414062 9.238281 Z M 12.414062 9.238281 "/>
<path style=" stroke:none;fill-rule:nonzero;fill:rgb(12.156863%,12.156863%,77.64706%);fill-opacity:1;" d="M 9.929688 11.761719 C 9.929688 12.3125 9.929688 12.867188 9.929688 13.441406 C 5.835938 14.6875 5.835938 14.6875 1.65625 15.960938 C 3.144531 11.429688 5.710938 11.570312 9.929688 11.761719 Z M 9.929688 11.761719 "/>
</g>
</svg>
